# xmcd
#
# Track frame offsets:
#	150
#	25230
#	47071
#	71683
#	86972
#	116019
#	133627
#	158877
#	183942
#	212380
#	234677
#	264633
#	284382
#	298870
#	328781
#
# Disc length: 4753 seconds
#
# Revision: 0
# Processed by: cddbd v1.5.1PL0 Copyright (c) Steve Scherf et al.
# Submitted via: EasyCDDAExtractor 8.0.2.1
#
DISCID=e7128f0f
DTITLE=Various Artist - Super Italia - Extended
DYEAR=2005
DGENRE=Techno
TTITLE0=Stefy - Tu-Remix 2005 (Extended)
TTITLE1=Gigi D'Agostino - Welcome To Paradise (Gigi D'Agostino's Way)
TTITLE2=Gianluca Motta - Up and Down (Extended Mix)
TTITLE3=Gam Gam, Gabry Ponte - Gam Gam (Gabry Ponte Remix Extended)
TTITLE4=Officina Emotiva - Everybody Changing (Gigi D'Agostino Trip)
TTITLE5=Karma - Oci Zelene (Extended)
TTITLE6=Fast and Furious - No More Lies (Original Maxi Version)
TTITLE7=Datura - Nu Style (Brugmansia Arborea - 2005 Remix)
TTITLE8=Angels Never Cry - Close Your Eyes
TTITLE9=Maria - Fiesta Del Ritmo
TTITLE10=Edge Of Universe - Heal Me (Extended)
TTITLE11=Infernal - From Paris To Berlin (Dj Aligator Club Mix)
TTITLE12=Disco Kings - Born To Be Alive
TTITLE13=Enjoy - Passion (M.T.J. Club Remix Extended)
TTITLE14=Dj Padolfi - Forever (Gigi D'Agostino E Pandolfi Mix)
EXTD=
EXTT0=
EXTT1=
EXTT2=
EXTT3=
EXTT4=
EXTT5=
EXTT6=
EXTT7=
EXTT8=
EXTT9=
EXTT10=
EXTT11=
EXTT12=
EXTT13=
EXTT14=
PLAYORDER=
